#!OML:ASF H:\Terrain\Walking\May29\JustinRory\Justin.ASF
:FULLY-SPECIFIED
:DEGREES
1
root 7.86827 17.8731 13.5642 -176.042 0.14319 -178.961
lowerback 3.95315 2.12746 1.32988
upperback 2.83043 3.01951 0.742391
thorax 0.71807 1.58397 -0.0796143
lowerneck -10.1657 -1.11353 -11.7832
upperneck 20.3521 -0.452446 0.771996
head 8.04083 -1.39545 2.11402
rclavicle 8.44835e-016 -1.51076e-014
rhumerus -35.0051 -21.2697 -72.6741
rradius 28.5148
rwrist -6.3989
rhand -9.03255 20.7819
rfingers 7.12502
rthumb 16.9151 -8.50146
lclavicle 8.44835e-016 -1.51076e-014
lhumerus -31.0459 22.8545 71.1745
lradius 42.2662
lwrist -4.41918
lhand 0.686122 48.6724
lfingers 7.12502
lthumb 26.2474 76.8771
rfemur -8.8914 -2.26427 13.9973
rtibia 28.7258
rfoot -17.3893 -10.4451
rtoes -0.874284
lfemur -13.3064 0.507764 -17.1927
ltibia 31.8086
lfoot -18.3595 -5.11087
ltoes -4.20905
2
root 7.81573 17.8666 13.5499 -175.906 0.491313 -179.129
lowerback 3.89451 2.2957 1.09198
upperback 2.72087 3.22626 0.710865
thorax 0.629398 1.67913 0.0135271
lowerneck -10.063 -1.22881 -11.8223
upperneck 19.9276 -0.593078 0.787383
head 7.89055 -1.43063 2.1118
rclavicle -2.83765e-014 -5.1684e-015
rhumerus -35.055 -20.5895 -72.9506
rradius 28.6828
rwrist -6.76031
rhand -8.60579 19.969
rfingers 7.12502
rthumb 17.3259 -9.27869
lclavicle -2.83765e-014 -5.1684e-015
lhumerus -30.9785 22.2841 71.3307
lradius 42.7981
lwrist -3.68277
lhand 1.9349 48.6114
lfingers 7.12502
lthumb 27.4423 76.6324
rfemur -9.21249 -2.18394 13.5919
rtibia 28.9928
rfoot -16.9715 -10.3665
rtoes -0.602409
lfemur -13.4133 0.868083 -17.5977
ltibia 31.903
lfoot -18.3902 -5.08811
ltoes -3.91717
3
root 7.766 17.8693 13.533 -175.865 0.898 -179.47
lowerback 3.82143 2.3903 0.656944
upperback 2.73924 3.33589 0.680711
thorax 0.66703 1.7275 0.225288
lowerneck -10.3378 -1.36736 -12.2144
upperneck 19.7796 -0.683738 0.967745
head 7.90145 -1.46811 2.22609
rclavicle 4.17448e-015 0
rhumerus -34.6758 -20.342 -73.1171
rradius 28.404
rwrist -6.44081
rhand -8.24692 19.589
rfingers 7.12502
rthumb 17.6712 -9.62796
lclavicle 4.17448e-015 0
lhumerus -30.8766 22.1581 71.4024
lradius 43.1944
lwrist -3.04413
lhand 2.91645 47.4964
lfingers 7.12502
lthumb 28.3807 75.365
rfemur -9.63697 -2.11181 12.9722
rtibia 29.5811
rfoot -16.7525 -10.0594
rtoes -1.2088
lfemur -13.2842 1.57777 -18.1786
ltibia 31.74
lfoot -18.4312 -5.37551
ltoes -4.48308
4
root 7.71589 17.8708 13.5129 -176.061 0.996547 -180.022
lowerback 3.86191 2.35578 0.0900292
upperback 2.88334 3.28058 0.568285
thorax 0.76763 1.69616 0.429997
lowerneck -10.4914 -1.46795 -12.4416
upperneck 19.5024 -0.74561 1.03978
head 7.8442 -1.48287 2.28003
rclavicle 1.81888e-014 -4.77083e-015
rhumerus -34.2021 -20.4085 -73.189
rradius 27.9847
rwrist -5.75466
rhand -8.05399 19.7085
rfingers 7.12502
rthumb 17.8569 -9.49169
lclavicle 1.81888e-014 -4.77083e-015
lhumerus -30.6897 22.1252 71.3587
lradius 43.3829
lwrist -2.03579
lhand 3.75023 45.5913
lfingers 7.12502
lthumb 29.1772 73.3245
rfemur -9.69003 -2.27401 12.1001
rtibia 30.1242
rfoot -16.6911 -9.63316
rtoes -1.34204
lfemur -12.9585 1.72139 -18.9559
ltibia 31.7038
lfoot -18.5244 -5.5914
ltoes -2.43242
5
root 7.66431 17.8712 13.4979 -176.173 1.173 -180.343
lowerback 3.98786 2.4126 -0.250949
upperback 2.8597 3.34497 0.488479
thorax 0.658454 1.72377 0.529116
lowerneck -10.2777 -1.47788 -12.3562
upperneck 19.0518 -0.764641 0.913313
head 7.65738 -1.46829 2.22193
rclavicle 6.57977e-014 -7.55382e-015
rhumerus -34.1451 -20.1911 -73.3408
rradius 28.0203
rwrist -5.60058
rhand -7.91704 19.408
rfingers 7.12502
rthumb 17.9887 -9.78015
lclavicle 6.57977e-014 -7.55382e-015
lhumerus -30.6058 21.9545 71.295
lradius 43.6336
lwrist -1.95614
lhand 5.45618 45.2268
lfingers 7.12502
lthumb 30.805 72.6653
rfemur -9.85664 -2.29283 11.5036
rtibia 30.6866
rfoot -16.3778 -9.34537
rtoes -1.47901
lfemur -12.7097 1.53503 -19.4925
ltibia 31.7035
lfoot -18.6542 -5.43429
ltoes 0.0634546
6
root 7.60908 17.8681 13.4878 -176.029 1.60907 -180.494
lowerback 3.95572 2.46793 -0.302814
upperback 2.71807 3.40533 0.37472
thorax 0.534171 1.74955 0.436789
lowerneck -10.1503 -1.38108 -12.3266
upperneck 18.6021 -0.622926 0.853296
head 7.47618 -1.37428 2.21043
rclavicle -1.62506e-014 -2.78299e-015
rhumerus -34.0986 -19.8324 -73.7149
rradius 28.1659
rwrist -5.4931
rhand -8.11986 19.228
rfingers 7.12502
rthumb 17.7935 -9.97797
lclavicle -1.62506e-014 -2.78299e-015
lhumerus -30.7528 21.9991 70.9722
lradius 44.3807
lwrist -3.50608
lhand 9.39714 47.2324
lfingers 7.12502
lthumb 34.5543 73.8914
rfemur -10.3726 -2.23439 11.0902
rtibia 31.179
rfoot -15.8657 -9.01727
rtoes -3.34124
lfemur -12.8136 1.70534 -19.8972
ltibia 31.7949
lfoot -18.7535 -5.25076
ltoes 0.909246
7
root 7.55896 17.8704 13.4733 -175.682 1.92323 -180.06
lowerback 3.66137 2.48814 0.12512
upperback 2.57773 3.43251 0.488925
thorax 0.571494 1.76243 0.324899
lowerneck -10.2922 -1.38082 -12.4396
upperneck 18.401 -0.575577 0.933013
head 7.43294 -1.3344 2.25898
rclavicle 6.80837e-015 3.97569e-016
rhumerus -33.9264 -19.5141 -73.9421
rradius 28.2778
rwrist -5.68355
rhand -8.28658 19.4808
rfingers 7.12502
rthumb 17.6331 -9.73964
lclavicle 6.80837e-015 3.97569e-016
lhumerus -30.7908 21.2107 71.3164
lradius 44.6195
lwrist -1.47037
lhand 6.52322 46.9465
lfingers 7.12502
lthumb 31.8217 74.188
rfemur -11.0773 -2.12235 11.3799
rtibia 31.6789
rfoot -15.5538 -8.8992
rtoes -4.76902
lfemur -13.2203 2.20899 -19.6327
ltibia 31.9002
lfoot -18.7467 -5.4191
ltoes 1.48433
8
root 7.51117 17.8733 13.4536 -175.775 1.8893 -179.332
lowerback 3.72952 2.45252 0.790374
upperback 2.59056 3.41205 0.78198
thorax 0.567298 1.76156 0.251967
lowerneck -10.5414 -1.52817 -12.5766
upperneck 18.4375 -0.720495 1.01301
head 7.50124 -1.40267 2.29327
rclavicle 1.635e-014 -5.96354e-015
rhumerus -33.8192 -19.1622 -73.9508
rradius 28.4397
rwrist -6.03981
rhand -8.03561 19.6537
rfingers 7.12502
rthumb 17.8746 -9.54486
lclavicle 1.635e-014 -5.96354e-015
lhumerus -30.8052 20.8884 71.5061
lradius 44.6989
lwrist -0.898668
lhand 5.71528 46.3733
lfingers 7.12502
lthumb 31.052 73.7649
rfemur -11.1956 -2.21616 12.009
rtibia 32.243
rfoot -15.4175 -8.80576
rtoes -5.55572
lfemur -13.0589 2.45468 -18.9886
ltibia 31.9044
lfoot -18.781 -5.66943
ltoes 1.62778
9
root 7.45688 17.8663 13.441 -176.251 1.90439 -179.634
lowerback 4.25851 2.37936 0.546415
upperback 2.64697 3.32175 0.765435
thorax 0.317557 1.71741 0.349449
lowerneck -10.5416 -1.60083 -12.6002
upperneck 18.2755 -0.784758 0.843346
head 7.45414 -1.442 2.23361
rclavicle 7.8023e-015 -3.18055e-015
rhumerus -33.7352 -18.8926 -73.992
rradius 28.601
rwrist -6.06812
rhand -7.85281 19.4279
rfingers 7.12502
rthumb 18.0505 -9.75454
lclavicle 7.8023e-015 -3.18055e-015
lhumerus -30.9688 20.9181 71.3896
lradius 44.7554
lwrist -1.40625
lhand 6.44073 45.6239
lfingers 7.12502
lthumb 31.7432 72.881
rfemur -10.9682 -2.49077 11.3845
rtibia 32.8471
rfoot -15.0959 -8.32714
rtoes -6.23835
lfemur -12.4008 2.15898 -19.5239
ltibia 31.7739
lfoot -18.6685 -5.48379
ltoes 2.07979
